<?xml version="1.0" standalone="no"?>
<svg xmlns="http://www.w3.org/2000/svg" xmlns:xlink="http://www.w3.org/1999/xlink" fill="#000000" height="128" width="128" version="1.1" id="Layer_1" viewBox="0 0 256 256" xml:space="preserve">
<g>
	<circle cx="140.2" cy="117.2" r="28.3"/>
	<path d="M222.7,206.4c-0.5-3.4-2.1-6.4-4.7-8.7l-46.8-40.2c-3.1-2.6-6.9-3.7-10.6-3.2c-0.3,0-0.8,0.2-1.1,0.2   c-0.2,0-0.3,0.2-0.5,0.3c-0.2,0.2-0.2,0.3-0.2,0.5c-0.6,2.9,0.8,15.9,4,31.2c3.1,13.7,7.2,28.3,11.9,35.1V245h6.1v-42.9l15.1,13   l3.7,29.9h27.8L222.7,206.4z"/>
	<path d="M114.4,24.9c5,3.5-20.7,18.3-20.7,18.3s12.2-0.8,11.7,2.1c1.1,7.1-12.7,12.9-12.7,12.9s14.3,4.2,24.6-4   c-6.6,14-35.4,14.5-36.7,15.4c-1.1,1,21.1,8.8,37.3-8.2c11.1-12.5,13.2-25.7,25.6-36.2c-3.7-4-18.3,9.3-18.3,9.3s3.4-15,22.7-21.7   c-4.7-2.9-30.5-7-50.6,1.2c-20.1,8.2-26.8,13.7-28.8,40.6C83.3,24.1,109.4,21.3,114.4,24.9z"/>
	<path d="M73,129.1L57.4,84.4L57.3,84l33.1-26.3c2.9-2.6,3.1-7.1,0.5-9.8c-2.6-2.9-6.9-3.1-9.8-0.5L52.9,73.5   c-3.5-4.7-9.7-6.8-15.4-4.7c-7.2,2.6-10.9,10.3-8.5,17.5l3,8.5c-5.2,3.7-15.1,10.8-16.5,12.1c-2.9,2.6-2.4,5.3,0.2,8.2   c2.6,2.9,5.3,3.5,8.2,1c1.6-1.4,8.1-9.3,11.1-12.8l0,0.1l14,39.9c1.1,3.2,3.4,6,6.4,7.6l43.7,23.8V245h6.1v-13.6   c21.7-5.3,30.2-20.1,39.7-77.2c-1.4,0-20.7,0.3-24.9,0.3L73,129.1z"/>
</g>
</svg>