<svg width="188" height="49" viewBox="0 0 188 49" fill="none" xmlns="http://www.w3.org/2000/svg">
<path fill-rule="evenodd" clip-rule="evenodd" d="M58.1658 0.174377H33.0747V12.72H25.0911V0.174377H1.1902e-06L0 12.72V48.6459H91.2406V0.174377H66.1495V12.72H58.1658V0.174377Z" fill="black"/>
<path d="M112.775 9.59679V0.169055H110.915V8.08836H108.081V0.169055H106.221V8.08836H103.386V0.169055H101.527V9.59679H112.775ZM116.501 9.59679V4.92844H116.514L119.973 9.59679H122.132L118.49 4.66835L121.988 0.169055H119.908L116.514 4.70738H116.501V0.169055H114.642V9.59679H116.501ZM124.043 4.87642C124.043 2.66577 125.265 1.48243 126.735 1.48243C128.204 1.48243 129.427 2.66577 129.427 4.87642C129.427 7.10006 128.204 8.28341 126.735 8.28341C125.265 8.28341 124.043 7.10006 124.043 4.87642ZM131.351 4.87642C131.351 1.95058 129.543 0 126.735 0C123.926 0 122.118 1.95058 122.118 4.87642C122.118 7.80227 123.926 9.7658 126.735 9.7658C129.543 9.7658 131.351 7.80227 131.351 4.87642ZM132.55 9.59679C134.709 9.59679 135.412 7.20409 135.516 4.09619L135.606 1.67749H138.259V9.59679H140.119V0.169055H133.825L133.721 3.433C133.616 6.1768 133.474 8.08836 132.251 8.08836H132.017V9.59679H132.55ZM141.024 9.59679H142.923L143.586 7.68523H147.253L147.916 9.59679H149.931L146.407 0.169055H144.535L141.024 9.59679ZM145.419 2.44471L146.719 6.16379H144.119L145.419 2.44471ZM155.51 9.59679V1.67749H159.554V9.59679H161.414V0.169055H153.651V9.59679H155.51ZM163.287 0.169055V9.59679H165.145V6.28083H166.563C168.747 6.28083 170.659 5.69566 170.659 3.28996C170.659 0.442132 168.435 0.169055 166.51 0.169055H163.287ZM166.55 1.62547C167.551 1.62547 168.747 1.75552 168.747 3.30296C168.747 4.55133 167.825 4.83741 166.68 4.83741H165.145V1.62547H166.55ZM169.749 9.59679H171.648L172.311 7.68523H175.979L176.642 9.59679H178.657L175.133 0.169055H173.261L169.749 9.59679ZM174.145 2.44471L175.445 6.16379H172.844L174.145 2.44471ZM179.573 9.59679H183.396C185.334 9.59679 187.011 8.84257 187.011 6.81398C187.011 5.51361 186.334 4.96744 185.606 4.61635C186.088 4.30425 186.673 3.51103 186.673 2.62676C186.673 0.689205 184.891 0.169055 183.239 0.169055H179.573V9.59679ZM181.433 5.46159H183.409C184.566 5.46159 185.112 5.92973 185.112 6.81398C185.112 7.68523 184.579 8.14037 183.487 8.14037H181.433V5.46159ZM181.433 1.62547H183.357C184.228 1.62547 184.761 2.0676 184.761 2.80881C184.761 3.64106 184.241 4.05718 183.357 4.05718H181.433V1.62547ZM108.679 22.615V13.1872H106.819V17.6865C106.26 17.8296 105.558 17.8816 105.051 17.8816C103.633 17.8816 103.1 17.3485 103.1 15.892V13.1872H101.241V16.3862C101.241 18.3757 102.307 19.416 104.401 19.416C105.181 19.416 106.104 19.273 106.819 19.1169V22.615H108.679ZM110.553 22.615H117.418V21.1066H112.412V18.5448H117.146V17.0364H112.412V14.6957H117.418V13.1872H110.553V22.615ZM118.788 22.615C120.947 22.615 121.649 20.2222 121.753 17.1144L121.843 14.6957H124.497V22.615H126.356V13.1872H120.063L119.959 16.4511C119.854 19.1949 119.711 21.1066 118.489 21.1066H118.255V22.615H118.788ZM129.615 17.8946C129.615 15.684 130.837 14.5006 132.307 14.5006C133.776 14.5006 134.999 15.684 134.999 17.8946C134.999 20.1182 133.776 21.3016 132.307 21.3016C130.837 21.3016 129.615 20.1182 129.615 17.8946ZM136.923 17.8946C136.923 14.9688 135.115 13.0182 132.307 13.0182C129.498 13.0182 127.69 14.9688 127.69 17.8946C127.69 20.8205 129.498 22.784 132.307 22.784C135.115 22.784 136.923 20.8205 136.923 17.8946ZM138.266 22.615H142.088C144.026 22.615 145.704 21.8607 145.704 19.8321C145.704 18.5318 145.027 17.9856 144.299 17.6346C144.78 17.3225 145.366 16.5293 145.366 15.6449C145.366 13.7074 143.584 13.1872 141.932 13.1872H138.266V22.615ZM140.125 18.4797H142.102C143.259 18.4797 143.805 18.9479 143.805 19.8321C143.805 20.7035 143.271 21.1585 142.18 21.1585H140.125V18.4797ZM140.125 14.6437H142.05C142.92 14.6437 143.454 15.0858 143.454 15.827C143.454 16.6592 142.934 17.0753 142.05 17.0753H140.125V14.6437ZM147.164 22.615H154.03V21.1066H149.024V18.5448H153.757V17.0364H149.024V14.6957H154.03V13.1872H147.164V22.615ZM157.402 22.615V17.9467H157.415L160.874 22.615H163.033L159.391 17.6865L162.89 13.1872H160.81L157.415 17.7256H157.402V13.1872H155.542V22.615H157.402ZM163.009 22.615H164.908L165.571 20.7035H169.239L169.901 22.615H171.917L168.393 13.1872H166.521L163.009 22.615ZM167.405 15.4629L168.705 19.182H166.104L167.405 15.4629ZM103.282 35.6332L107.717 28.7671V35.6332H109.472V26.2054H107.717L103.282 33.0714V26.2054H101.527V35.6332H103.282ZM116.938 35.6332L119.253 28.5461V35.6332H120.983V26.2054H118.253L116.028 33.5525L113.74 26.2054H111.035V35.6332H112.765V28.5461L115.092 35.6332H116.938ZM124.441 35.6332V33.6826H122.517V35.6332H124.441ZM128.779 35.6332H135.645V34.1247H130.639V31.563H135.372V30.0546H130.639V27.7139H135.645V26.2054H128.779V35.6332ZM137.015 35.6332C139.173 35.6332 139.875 33.2404 139.979 30.1326L140.07 27.7139H142.723V35.6332H144.582V26.2054H138.289L138.185 29.4693C138.081 32.2131 137.937 34.1247 136.716 34.1247H136.482V35.6332H137.015ZM146.45 35.6332H153.316V34.1247H148.31V31.563H153.043V30.0546H148.31V27.7139H153.316V26.2054H146.45V35.6332ZM160.914 26.2054V30.0546H156.688V26.2054H154.828V35.6332H156.688V31.563H160.914V35.6332H162.774V26.2054H160.914ZM167.476 35.6332C169.869 35.6332 171.637 35.035 171.637 32.5643C171.637 30.0675 169.869 29.4823 167.476 29.4823H166.501V26.2054H164.642V35.6332H167.476ZM166.501 30.9908H167.528C168.738 30.9908 169.753 31.2379 169.753 32.5643C169.753 33.8646 168.738 34.1247 167.528 34.1247H166.501V30.9908ZM174.772 35.6332V26.2054H172.912V35.6332H174.772ZM105.675 48.6513C107.912 48.6513 109.342 47.8321 109.342 45.6604C109.342 43.5278 107.899 42.8256 105.766 42.8256H103.386V40.7321H108.497V39.2236H101.527V48.6513H105.675ZM103.386 44.3341H105.727C106.832 44.3341 107.443 44.7242 107.443 45.7125C107.443 46.6488 106.845 47.1429 105.753 47.1429H103.386V44.3341ZM111.995 43.9309C111.995 41.7203 113.217 40.5369 114.687 40.5369C116.156 40.5369 117.379 41.7203 117.379 43.9309C117.379 46.1546 116.156 47.338 114.687 47.338C113.217 47.338 111.995 46.1546 111.995 43.9309ZM119.303 43.9309C119.303 41.0051 117.495 39.0546 114.687 39.0546C111.878 39.0546 110.07 41.0051 110.07 43.9309C110.07 46.8569 111.878 48.8204 114.687 48.8204C117.495 48.8204 119.303 46.8569 119.303 43.9309ZM126.731 39.2236V43.0728H122.504V39.2236H120.646V48.6513H122.504V44.5812H126.731V48.6513H128.59V39.2236H126.731ZM136.544 39.2236V43.0728H132.318V39.2236H130.458V48.6513H132.318V44.5812H136.544V48.6513H138.404V39.2236H136.544ZM144.03 48.8204C146.904 48.8204 148.62 46.8958 148.62 43.9309C148.62 40.9791 146.852 39.0676 143.965 39.0676C141.676 39.0676 140.063 40.498 139.712 42.5915H141.534C141.833 41.1872 142.847 40.576 144.03 40.576C145.435 40.576 146.461 41.5123 146.67 43.1377H142.769V44.6462H146.683C146.513 46.3497 145.421 47.3119 144.017 47.3119C142.873 47.3119 141.754 46.7918 141.482 45.2964H139.66C140.012 47.416 141.715 48.8204 144.03 48.8204ZM149.958 39.2236V48.6513H151.818V45.3353H153.235C155.42 45.3353 157.331 44.7502 157.331 42.3445C157.331 39.4967 155.108 39.2236 153.183 39.2236H149.958ZM153.222 40.68C154.224 40.68 155.42 40.8101 155.42 42.3576C155.42 43.6058 154.496 43.892 153.352 43.892H151.818V40.68H153.222Z" fill="black"/>
</svg>
